{
  "accessors": [
    {
      "bufferView": 2,
      "componentType": 5126,
      "count": 3807,
      "max": [
        10.961503982543945,
        6.732134819030762,
        0.025848388671875
      ],
      "min": [
        -10.961503982543945,
        -10.759173393249512,
        -10.435201644897461
      ],
      "type": "VEC3"
    },
    {
      "bufferView": 2,
      "byteOffset": 45684,
      "componentType": 5126,
      "count": 3807,
      "max": [
        0.9996556043624878,
        0.9995220899581909,
        0.9997878074645996
      ],
      "min": [
        -0.9996556043624878,
        -0.9994524717330933,
        -0.999193549156189
      ],
      "type": "VEC3"
    },
    {
      "bufferView": 3,
      "componentType": 5126,
      "count": 3807,
      "max": [
        0.999976634979248,
        0.9999910593032837,
        0.9995220899581909,
        1.0
      ],
      "min": [
        -0.999976634979248,
        -0.9998595714569092,
        -0.9995335936546326,
        -1.0
      ],
      "type": "VEC4"
    },
    {
      "bufferView": 1,
      "componentType": 5126,
      "count": 3807,
      "max": [
        0.9995588660240173,
        0.9822422862052917
      ],
      "min": [
        0.0004410752444528043,
        0.0004410752444528043
      ],
      "type": "VEC2"
    },
    {
      "bufferView": 0,
      "componentType": 5125,
      "count": 17058,
      "type": "SCALAR"
    }
  ],
  "asset": {
    "extras": {
      "author": "egorova.e (https://sketchfab.com/silentegor)",
      "license": "CC-BY-4.0 (http://creativecommons.org/licenses/by/4.0/)",
      "source": "https://sketchfab.com/3d-models/demon-mask-e8f1ddf1cd344a50bdb4a30beaff8333",
      "title": "Demon Mask"
    },
    "generator": "Sketchfab-12.66.0",
    "version": "2.0"
  },
  "bufferViews": [
    {
      "buffer": 0,
      "byteLength": 68232,
      "name": "floatBufferViews",
      "target": 34963
    },
    {
      "buffer": 0,
      "byteLength": 30456,
      "byteOffset": 68232,
      "byteStride": 8,
      "name": "floatBufferViews",
      "target": 34962
    },
    {
      "buffer": 0,
      "byteLength": 91368,
      "byteOffset": 98688,
      "byteStride": 12,
      "name": "floatBufferViews",
      "target": 34962
    },
    {
      "buffer": 0,
      "byteLength": 60912,
      "byteOffset": 190056,
      "byteStride": 16,
      "name": "floatBufferViews",
      "target": 34962
    }
  ],
  "buffers": [
    {
      "byteLength": 250968,
      "uri": "scene.bin"
    }
  ],
  "images": [
    {
      "uri": "textures/Scene_-_Root_baseColor.png"
    },
    {
      "uri": "textures/Scene_-_Root_metallicRoughness.png"
    },
    {
      "uri": "textures/Scene_-_Root_normal.png"
    }
  ],
  "materials": [
    {
      "doubleSided": true,
      "name": "Scene_-_Root",
      "normalTexture": {
        "index": 2
      },
      "pbrMetallicRoughness": {
        "baseColorTexture": {
          "index": 0
        },
        "metallicRoughnessTexture": {
          "index": 1
        }
      }
    }
  ],
  "meshes": [
    {
      "name": "skull_low__0",
      "primitives": [
        {
          "attributes": {
            "NORMAL": 1,
            "POSITION": 0,
            "TANGENT": 2,
            "TEXCOORD_0": 3
          },
          "indices": 4,
          "material": 0,
          "mode": 4
        }
      ]
    }
  ],
  "nodes": [
    {
      "children": [
        1
      ],
      "matrix": [
        1.0,
        0.0,
        0.0,
        0.0,
        0.0,
        2.220446049250313e-16,
        -1.0,
        0.0,
        0.0,
        1.0,
        2.220446049250313e-16,
        0.0,
        0.0,
        0.0,
        0.0,
        1.0
      ],
      "name": "Sketchfab_model"
    },
    {
      "children": [
        2
      ],
      "matrix": [
        0.009999999776482582,
        0.0,
        0.0,
        0.0,
        0.0,
        0.0,
        0.009999999776482582,
        0.0,
        0.0,
        -0.009999999776482582,
        0.0,
        0.0,
        0.0,
        0.0,
        0.0,
        1.0
      ],
      "name": "8942ac0e94db4fb88d8416a8f2c2c791.fbx"
    },
    {
      "children": [
        3
      ],
      "name": "RootNode"
    },
    {
      "children": [
        4
      ],
      "matrix": [
        37.153236389160156,
        0.0,
        0.0,
        0.0,
        0.0,
        37.15323638916012,
        1.6240196739103518e-06,
        0.0,
        0.0,
        -1.6240196739103518e-06,
        37.15323638916012,
        0.0,
        -0.8006863594055176,
        352.1217956542969,
        255.67173767089844,
        1.0
      ],
      "name": "skull_low"
    },
    {
      "mesh": 0,
      "name": "skull_low__0"
    }
  ],
  "samplers": [
    {
      "magFilter": 9729,
      "minFilter": 9987,
      "wrapS": 10497,
      "wrapT": 10497
    }
  ],
  "scene": 0,
  "scenes": [
    {
      "name": "Sketchfab_Scene",
      "nodes": [
        0
      ]
    }
  ],
  "textures": [
    {
      "sampler": 0,
      "source": 0
    },
    {
      "sampler": 0,
      "source": 1
    },
    {
      "sampler": 0,
      "source": 2
    }
  ]
}
